<svg width="120" height="80" viewBox="0 0 120 80" fill="none" xmlns="http://www.w3.org/2000/svg">
<path d="M58.3857 19.0627C53.6398 19.6376 49.8159 22.5388 48.3498 26.6834C48.0475 27.539 48.0022 27.9669 48.0022 29.6247C48.0022 31.844 48.244 32.7799 49.302 34.5848C51.5843 38.4754 56.5266 40.7749 61.3783 40.1867C66.6381 39.5583 70.7038 36.2025 71.7467 31.6301C72.049 30.3065 71.9734 28.1808 71.5653 26.8839C70.2201 22.4853 65.8068 19.3034 60.6226 19.0226C59.9122 18.9825 58.9147 18.9959 58.3857 19.0627ZM62.6328 20.3462C63.8268 20.6136 64.9604 21.0682 66.0184 21.7099C67.0008 22.2982 68.6482 23.7956 69.011 24.4106L69.2528 24.8116H68.089H66.9252L65.9126 23.956C64.0837 22.4319 62.0584 21.7901 59.489 21.9104C57.1161 22.0174 55.2873 22.726 53.6398 24.1833C52.4458 25.2528 51.2518 27.3251 51.2518 28.3546V28.6888H61.0004H70.7491V29.6782C70.7491 31.1488 70.3864 32.4724 69.5853 33.903C68.9959 34.9725 68.6785 35.3602 67.5147 36.3763C65.2778 38.355 63.056 39.1706 59.9424 39.1706C57.9625 39.1706 56.8289 38.9433 55.1059 38.1812C53.3224 37.4058 51.4634 35.9218 50.7076 34.665L50.4809 34.304H51.6296H52.7783L53.7305 35.1463C55.4082 36.6304 57.4939 37.379 59.9576 37.379C61.5143 37.379 62.5421 37.1651 63.9477 36.5635C65.2324 36.002 67.0613 34.411 67.6961 33.3013C68.1948 32.4189 68.6331 31.2157 68.6331 30.7344V30.4269H58.8693H49.0904L49.166 29.0498C49.4078 24.5844 53.2468 20.8542 58.3555 20.1323C59.4286 19.9852 61.4841 20.0788 62.6328 20.3462Z" fill="white"/>
<path d="M41.8807 49.813V57.2999H43.3166H44.7524V54.5191C44.7524 51.0296 44.828 50.5215 45.4175 49.6525C46.0523 48.7033 46.9742 48.2888 48.3647 48.2888C49.6343 48.3022 50.39 48.6097 50.919 49.3183L51.3271 49.8531L51.3725 53.5832L51.4178 57.2999H52.9292H54.4255V53.904C54.4255 50.3076 54.3349 49.5055 53.7756 48.4225C52.9897 46.9118 51.569 46.1764 49.2565 46.0962C47.6241 46.0294 46.7929 46.2165 45.5988 46.8716C45.2059 47.0989 44.8582 47.2727 44.828 47.2727C44.7827 47.2727 44.7524 46.1631 44.7524 44.7994V42.326H43.3166H41.8807V49.813Z" fill="white"/>
<path d="M16.8214 42.6593C14.0102 43.2208 12.665 44.6113 12.6499 46.951C12.6499 47.7799 12.6953 47.9938 13.1033 48.5553C13.8893 49.6917 15.0228 50.173 18.3782 50.8281C20.5244 51.2426 21.4313 51.5635 22.0207 52.0982C22.3986 52.4459 22.4591 52.6197 22.4591 53.2213C22.4591 54.1171 22.1114 54.5716 21.0988 55.0262C20.4791 55.2936 20.1315 55.3471 18.9828 55.3604C18.1968 55.3604 17.3807 55.2802 17.033 55.1732C16.1866 54.9192 15.31 54.1572 15.1286 53.5422L14.9624 53.0207H13.4812H12L12.1209 53.6759C12.6046 56.4166 15.9146 58.0477 20.0408 57.5931C22.5951 57.3124 24.2728 56.4701 25.0285 55.093C25.8598 53.609 25.633 51.7907 24.4995 50.6944C23.4566 49.6917 22.3835 49.304 19.013 48.689C16.3378 48.1943 15.3856 47.566 15.6425 46.4429C15.8995 45.3199 16.8668 44.8252 18.7561 44.8118C20.6302 44.8118 21.6127 45.3332 21.8847 46.4696L21.9754 46.8707H23.4868H24.9983L24.8925 46.1889C24.6657 44.7182 23.4566 43.408 21.794 42.8465C20.6907 42.4721 18.1817 42.3786 16.8214 42.6593Z" fill="white"/>
<path d="M31.7853 46.3364C31.3318 46.4835 30.6366 46.8043 30.2285 47.0717C29.8204 47.3257 29.4577 47.5397 29.4123 47.5397C29.367 47.5397 29.3368 47.406 29.3368 47.2321C29.3216 46.3899 29.2461 46.3364 27.9614 46.3364H26.7673V53.7565V61.19L28.2485 61.1499L29.7146 61.1098L29.76 58.73L29.7902 56.3502L30.3192 56.6978C31.483 57.5 33.4781 57.861 35.1557 57.5802C37.1962 57.246 38.889 56.1764 39.7354 54.6656C41.4735 51.6174 40.2341 48.0878 36.9241 46.6305C35.851 46.1626 35.6847 46.1358 34.1884 46.1091C32.9037 46.0824 32.4201 46.1225 31.7853 46.3364ZM35.3069 48.5958C36.7276 49.144 37.5589 50.3606 37.5589 51.8848C37.5589 52.6736 37.4833 52.941 37.1206 53.556C36.3195 54.8528 34.9139 55.5213 33.2513 55.3876C31.8457 55.2806 30.5912 54.5319 29.9867 53.4356C29.6088 52.7271 29.5484 51.2831 29.8658 50.5344C30.697 48.5958 33.1153 47.7402 35.3069 48.5958Z" fill="white"/>
<path d="M59.9575 46.323C56.4661 47.3391 54.6977 50.6949 55.9371 53.9036C57.3125 57.4198 62.4664 58.8236 65.8974 56.631C66.2299 56.4037 66.5473 56.2299 66.5926 56.2299C66.638 56.2299 66.6682 56.4705 66.6682 56.7647V57.2994H67.9529H69.2376V51.8179V46.323L67.9982 46.3631L66.7438 46.4032L66.6984 46.8979C66.638 47.4862 66.5624 47.5129 66.0183 47.1386C65.8067 46.9915 65.2323 46.6974 64.7487 46.5102C63.5546 46.0155 61.3026 45.9353 59.9575 46.323ZM64.0383 48.5424C65.4439 49.0638 66.4264 50.4141 66.4264 51.8313C66.4264 54.0105 64.5522 55.5614 62.1339 55.401C59.9423 55.2539 58.5065 53.7966 58.5065 51.7644C58.5216 49.2108 61.3782 47.553 64.0383 48.5424Z" fill="white"/>
<path d="M75.4042 46.3232C72.3058 47.2055 70.356 49.9463 70.8699 52.6871C71.5349 56.2167 75.2833 58.3424 79.349 57.5001C81.2081 57.1124 82.8857 55.9894 83.6717 54.6123L84.0495 53.9572H82.523H80.9965L80.3465 54.5455C78.3968 56.3236 74.7996 55.5615 73.8474 53.1684L73.6358 52.6202L79.0316 52.5935L84.4274 52.5534L84.4727 51.9785C84.6239 50.1335 83.2485 47.8874 81.3592 46.9114C79.7269 46.0691 77.2028 45.8151 75.4042 46.3232ZM78.684 48.2216C79.8629 48.5024 81.0116 49.465 81.2534 50.3741L81.3592 50.7485H77.5504H73.7567L73.8474 50.441C74.4066 48.7832 76.6738 47.7403 78.684 48.2216Z" fill="white"/>
<path d="M98.6801 46.3235C94.7504 47.4332 92.9367 51.2703 94.7958 54.5191C96.6548 57.7946 101.809 58.7038 105.255 56.3908C105.98 55.9095 107.174 54.5057 107.174 54.1447C107.174 53.9977 106.857 53.9576 105.723 53.9576H104.272L103.592 54.5592C101.627 56.3106 98.0453 55.5485 97.1385 53.1955L96.9118 52.6206L102.308 52.5939L107.703 52.5538L107.749 51.9789C107.9 50.1339 106.524 47.8878 104.635 46.9118C103.003 46.0695 100.479 45.8155 98.6801 46.3235ZM101.945 48.222C103.139 48.5161 104.272 49.4654 104.544 50.4013L104.635 50.7489H100.826H97.0327L97.1234 50.4414C97.6826 48.7835 99.9648 47.7407 101.945 48.222Z" fill="white"/>
<path d="M85.8632 51.8184V57.2999H87.299H88.7349V54.4923C88.7349 52.9548 88.8104 51.3906 88.9011 51.0296C89.2639 49.4921 90.473 48.73 92.6948 48.6364L94.0248 48.583V47.4332V46.2968L92.4681 46.3636C91.1985 46.4171 90.7602 46.4839 90.0196 46.7914C89.5208 46.992 88.9616 47.2727 88.7802 47.4332L88.4477 47.7139L88.3419 47.0187L88.2361 46.3369H87.0572H85.8632V51.8184Z" fill="white"/>
</svg>
