<svg width="96" height="43" viewBox="0 0 96 43" fill="none" xmlns="http://www.w3.org/2000/svg">
<path d="M46.3857 0.0627256C41.6398 0.637618 37.8159 3.53882 36.3498 7.68339C36.0475 8.53904 36.0022 8.96687 36.0022 10.6247C36.0022 12.844 36.244 13.7799 37.302 15.5848C39.5843 19.4754 44.5266 21.7749 49.3783 21.1867C54.6381 20.5583 58.7038 17.2025 59.7467 12.6301C60.049 11.3065 59.9734 9.18078 59.5653 7.88393C58.2201 3.48534 53.8068 0.303378 48.6226 0.0226169C47.9122 -0.0174919 46.9147 -0.00412231 46.3857 0.0627256ZM50.6328 1.34621C51.8268 1.6136 52.9604 2.06816 54.0184 2.7099C55.0008 3.29816 56.6482 4.79556 57.011 5.41056L57.2528 5.81164H56.089H54.9252L53.9126 4.95599C52.0837 3.43186 50.0584 2.79012 47.489 2.91045C45.1161 3.0174 43.2873 3.72599 41.6398 5.18327C40.4458 6.25284 39.2518 8.32513 39.2518 9.35458V9.68882H49.0004H58.7491V10.6782C58.7491 12.1488 58.3864 13.4724 57.5853 14.903C56.9959 15.9725 56.6785 16.3602 55.5147 17.3763C53.2778 19.355 51.056 20.1706 47.9424 20.1706C45.9625 20.1706 44.8289 19.9433 43.1059 19.1812C41.3224 18.4058 39.4634 16.9218 38.7076 15.665L38.4809 15.304H39.6296H40.7783L41.7305 16.1463C43.4082 17.6304 45.4939 18.379 47.9576 18.379C49.5143 18.379 50.5421 18.1651 51.9477 17.5635C53.2324 17.002 55.0613 15.411 55.6961 14.3013C56.1948 13.4189 56.6331 12.2157 56.6331 11.7344V11.4269H46.8693H37.0904L37.166 10.0498C37.4078 5.58436 41.2468 1.85425 46.3555 1.13229C47.4286 0.985227 49.4841 1.07881 50.6328 1.34621Z" fill="white"/>
<path d="M29.8807 30.813V38.2999H31.3166H32.7524V35.5191C32.7524 32.0296 32.828 31.5215 33.4175 30.6525C34.0523 29.7033 34.9742 29.2888 36.3647 29.2888C37.6343 29.3022 38.39 29.6097 38.919 30.3183L39.3271 30.8531L39.3725 34.5832L39.4178 38.2999H40.9292H42.4255V34.904C42.4255 31.3076 42.3349 30.5055 41.7756 29.4225C40.9897 27.9118 39.569 27.1764 37.2565 27.0962C35.6241 27.0294 34.7929 27.2165 33.5988 27.8716C33.2059 28.0989 32.8582 28.2727 32.828 28.2727C32.7827 28.2727 32.7524 27.1631 32.7524 25.7994V23.326H31.3166H29.8807V30.813Z" fill="white"/>
<path d="M4.82144 23.6593C2.01019 24.2208 0.665027 25.6113 0.649913 27.951C0.649913 28.7799 0.695255 28.9938 1.10334 29.5553C1.88928 30.6917 3.02285 31.173 6.37821 31.8281C8.52443 32.2426 9.43129 32.5635 10.0207 33.0982C10.3986 33.4459 10.4591 33.6197 10.4591 34.2213C10.4591 35.1171 10.1114 35.5716 9.09878 36.0262C8.47909 36.2936 8.13146 36.3471 6.98278 36.3604C6.19684 36.3604 5.38067 36.2802 5.03304 36.1732C4.18665 35.9192 3.31002 35.1572 3.12865 34.5422L2.96239 34.0207H1.4812H0L0.120914 34.6759C0.60457 37.4166 3.91459 39.0477 8.04078 38.5931C10.5951 38.3124 12.2728 37.4701 13.0285 36.093C13.8598 34.609 13.633 32.7907 12.4995 31.6944C11.4566 30.6917 10.3835 30.304 7.01301 29.689C4.33779 29.1943 3.38559 28.566 3.64253 27.4429C3.89948 26.3199 4.86679 25.8252 6.75607 25.8118C8.63023 25.8118 9.61266 26.3332 9.88472 27.4696L9.9754 27.8707H11.4868H12.9983L12.8925 27.1889C12.6657 25.7182 11.4566 24.408 9.79403 23.8465C8.69069 23.4721 6.18173 23.3786 4.82144 23.6593Z" fill="white"/>
<path d="M19.7853 27.3364C19.3318 27.4835 18.6366 27.8043 18.2285 28.0717C17.8204 28.3257 17.4577 28.5397 17.4123 28.5397C17.367 28.5397 17.3368 28.406 17.3368 28.2321C17.3216 27.3899 17.2461 27.3364 15.9614 27.3364H14.7673V34.7565V42.19L16.2485 42.1499L17.7146 42.1098L17.76 39.73L17.7902 37.3502L18.3192 37.6978C19.483 38.5 21.4781 38.861 23.1557 38.5802C25.1962 38.246 26.889 37.1764 27.7354 35.6656C29.4735 32.6174 28.2341 29.0878 24.9241 27.6305C23.851 27.1626 23.6847 27.1358 22.1884 27.1091C20.9037 27.0824 20.4201 27.1225 19.7853 27.3364ZM23.3069 29.5958C24.7276 30.144 25.5589 31.3606 25.5589 32.8848C25.5589 33.6736 25.4833 33.941 25.1206 34.556C24.3195 35.8528 22.9139 36.5213 21.2513 36.3876C19.8457 36.2806 18.5912 35.5319 17.9867 34.4356C17.6088 33.7271 17.5484 32.2831 17.8658 31.5344C18.697 29.5958 21.1153 28.7402 23.3069 29.5958Z" fill="white"/>
<path d="M47.9575 27.323C44.4661 28.3391 42.6977 31.6949 43.9371 34.9036C45.3125 38.4198 50.4664 39.8236 53.8974 37.631C54.2299 37.4037 54.5473 37.2299 54.5926 37.2299C54.638 37.2299 54.6682 37.4705 54.6682 37.7647V38.2994H55.9529H57.2376V32.8179V27.323L55.9982 27.3631L54.7438 27.4032L54.6984 27.8979C54.638 28.4862 54.5624 28.5129 54.0183 28.1386C53.8067 27.9915 53.2323 27.6974 52.7487 27.5102C51.5546 27.0155 49.3026 26.9353 47.9575 27.323ZM52.0383 29.5424C53.4439 30.0638 54.4264 31.4141 54.4264 32.8313C54.4264 35.0105 52.5522 36.5614 50.1339 36.401C47.9423 36.2539 46.5065 34.7966 46.5065 32.7644C46.5216 30.2108 49.3782 28.553 52.0383 29.5424Z" fill="white"/>
<path d="M63.4042 27.3232C60.3058 28.2055 58.356 30.9463 58.8699 33.6871C59.5349 37.2167 63.2833 39.3424 67.349 38.5001C69.2081 38.1124 70.8857 36.9894 71.6717 35.6123L72.0495 34.9572H70.523H68.9965L68.3465 35.5455C66.3968 37.3236 62.7996 36.5615 61.8474 34.1684L61.6358 33.6202L67.0316 33.5935L72.4274 33.5534L72.4727 32.9785C72.6239 31.1335 71.2485 28.8874 69.3592 27.9114C67.7269 27.0691 65.2028 26.8151 63.4042 27.3232ZM66.684 29.2216C67.8629 29.5024 69.0116 30.465 69.2534 31.3741L69.3592 31.7485H65.5504H61.7567L61.8474 31.441C62.4066 29.7832 64.6738 28.7403 66.684 29.2216Z" fill="white"/>
<path d="M86.6801 27.3235C82.7504 28.4332 80.9367 32.2703 82.7958 35.5191C84.6548 38.7946 89.8088 39.7038 93.2548 37.3908C93.9803 36.9095 95.1743 35.5057 95.1743 35.1447C95.1743 34.9977 94.8569 34.9576 93.7234 34.9576H92.2724L91.5923 35.5592C89.6274 37.3106 86.0453 36.5485 85.1385 34.1955L84.9118 33.6206L90.3075 33.5939L95.7033 33.5538L95.7487 32.9789C95.8998 31.1339 94.5244 28.8878 92.6351 27.9118C91.0028 27.0695 88.4787 26.8155 86.6801 27.3235ZM89.9448 29.222C91.1388 29.5161 92.2724 30.4654 92.5445 31.4013L92.6351 31.7489H88.8263H85.0327L85.1234 31.4414C85.6826 29.7835 87.9648 28.7407 89.9448 29.222Z" fill="white"/>
<path d="M73.8632 32.8184V38.2999H75.299H76.7349V35.4923C76.7349 33.9548 76.8104 32.3906 76.9011 32.0296C77.2639 30.4921 78.473 29.73 80.6948 29.6364L82.0248 29.583V28.4332V27.2968L80.4681 27.3636C79.1985 27.4171 78.7602 27.4839 78.0196 27.7914C77.5208 27.992 76.9616 28.2727 76.7802 28.4332L76.4477 28.7139L76.3419 28.0187L76.2361 27.3369H75.0572H73.8632V32.8184Z" fill="white"/>
</svg>
