<svg width="24" height="25" viewBox="0 0 24 25" fill="none" xmlns="http://www.w3.org/2000/svg">
<path d="M17 2.18579H7C4.23858 2.18579 2 4.42437 2 7.18579V17.1858C2 19.9472 4.23858 22.1858 7 22.1858H17C19.7614 22.1858 22 19.9472 22 17.1858V7.18579C22 4.42437 19.7614 2.18579 17 2.18579Z" stroke="white" stroke-opacity="0.5" stroke-width="2" stroke-linecap="round" stroke-linejoin="round"/>
<path d="M16 11.5558C16.1234 12.388 15.9813 13.238 15.5938 13.9848C15.2063 14.7316 14.5932 15.3372 13.8416 15.7155C13.0901 16.0937 12.2385 16.2254 11.4078 16.0917C10.5771 15.9581 9.80977 15.5659 9.21485 14.9709C8.61993 14.376 8.22774 13.6087 8.09408 12.778C7.96042 11.9473 8.09208 11.0957 8.47034 10.3442C8.8486 9.59264 9.4542 8.97953 10.201 8.59203C10.9478 8.20453 11.7978 8.06238 12.63 8.18579C13.4789 8.31167 14.2649 8.70725 14.8717 9.31409C15.4785 9.92094 15.8741 10.7069 16 11.5558Z" stroke="white" stroke-opacity="0.5" stroke-width="2" stroke-linecap="round" stroke-linejoin="round"/>
<path d="M17.5 6.68579H17.51" stroke="white" stroke-opacity="0.5" stroke-width="2" stroke-linecap="round" stroke-linejoin="round"/>
</svg>
