<svg width="40" height="40" viewBox="0 0 40 40" fill="none" xmlns="http://www.w3.org/2000/svg">
<path d="M27.4993 25.8333L33.3327 31.6666M36.666 35L33.3327 31.6666L36.666 35ZM20.6493 18.9833C19.8002 19.8439 18.7893 20.528 17.6747 20.9962C16.5601 21.4645 15.3639 21.7076 14.155 21.7117C12.946 21.7157 11.7482 21.4806 10.6305 21.0198C9.51281 20.5591 8.4973 19.8817 7.64244 19.0269C6.78758 18.172 6.11027 17.1565 5.64949 16.0388C5.18872 14.9211 4.95359 13.7233 4.95764 12.5144C4.96169 11.3054 5.20484 10.1092 5.67309 8.99462C6.14134 7.88003 6.82545 6.86908 7.68601 6.01997C9.41487 4.35019 11.7304 3.42624 14.1339 3.44712C16.5373 3.46801 18.8364 4.43206 20.536 6.13163C22.2356 7.83121 23.1996 10.1303 23.2205 12.5338C23.2414 14.9373 22.3175 17.2528 20.6477 18.9816L20.6493 18.9833ZM20.6493 18.9833L27.4993 25.8333L20.6493 18.9833ZM27.4993 25.8333L22.4993 30.8333L28.3327 36.6666L33.3327 31.6666L27.4993 25.8333Z" stroke="#3C8BAC" stroke-width="2" stroke-linecap="round" stroke-linejoin="round"/>
</svg>
