<svg width="40" height="40" viewBox="0 0 40 40" fill="none" xmlns="http://www.w3.org/2000/svg">
<path d="M11.6673 36.6666H6.66732C5.78326 36.6666 4.93542 36.3155 4.31029 35.6903C3.68517 35.0652 3.33398 34.2174 3.33398 33.3333V21.6666C3.33398 20.7826 3.68517 19.9347 4.31029 19.3096C4.93542 18.6845 5.78326 18.3333 6.66732 18.3333H11.6673M23.334 15V8.33331C23.334 7.00723 22.8072 5.73546 21.8695 4.79778C20.9318 3.8601 19.6601 3.33331 18.334 3.33331L11.6673 18.3333V36.6666H30.4673C31.2712 36.6757 32.0513 36.394 32.6638 35.8733C33.2764 35.3527 33.6801 34.6282 33.8007 33.8333L36.1007 18.8333C36.1732 18.3556 36.1409 17.8678 36.0062 17.4037C35.8715 16.9397 35.6375 16.5105 35.3204 16.1458C35.0033 15.7812 34.6108 15.4899 34.1699 15.292C33.7291 15.0942 33.2505 14.9945 32.7673 15H23.334Z" stroke="#3C8BAC" stroke-width="2" stroke-linecap="round" stroke-linejoin="round"/>
</svg>
